PathFileType	4	(X/Y/Z)	C:\Users\°ÂÌØÂü\Desktop\20210112\bx_n_10_501-Unnamed.trc
DataRate	CameraRate	NumFrames	NumMarkers	Units	OrigDataRate	OrigDataStartFrame	OrigNumFrames
50.00	50.00	       9	0	mm	50.00	164	       436
Frame#	Time	
		

164	3.260	-589.46997	99.60549	1823.22510	-627.88452	285.07108	1511.79504	-675.53369	237.44406	1067.63806	-719.37274	66.93398	218.72975	-587.11188	101.36517	1321.89734	-758.34137	268.91125	746.03320	-777.60620	251.35281	641.82233	-772.92041	249.42741	575.97638	-713.98871	208.98651	539.57458	-805.45105	259.74509	498.56729	-517.72626	-73.06998	143.07202	-549.88477	-31.11549	162.79718	-792.48547	37.71396	173.29640	-666.19568	-9.81384	1053.32007	-597.78333	23.66358	169.36327	-672.39008	51.88106	161.53386	-714.74957	157.37764	220.54086	-796.65851	179.97162	182.74811	-771.55359	230.24963	203.56941	-594.14807	222.54788	174.94621	-882.75903	296.07422	144.60316	-558.47290	257.09033	164.28667	-661.29364	298.94687	156.27498	-624.81720	308.26819	157.03865	-527.85345	303.92236	146.43570	-622.02698	-74.68389	1510.76990	-649.57123	-15.87924	811.81262	-785.74957	-46.54466	486.43167	-760.74292	-20.61204	206.14949	-875.86865	-78.72662	141.20197	-734.10742	-74.07211	877.03033	-868.76831	89.80730	1065.54602	-724.64484	71.81573	575.14929	-730.96796	146.04112	578.25037				-675.72888	175.14937	162.18687	-607.65045	-78.41689	155.60010	-649.41156	-70.27826	159.23346	-650.29535	216.83052	821.87366	-760.08398	277.75754	877.31714	-694.64819	13.83339	524.58600				-746.61737	-62.42654	760.01941	-748.42450	-37.06063	617.07727	-750.13678	-34.42514	569.35052	
165	3.280	-600.77039	98.57183	1827.38013	-635.18585	284.78189	1515.36694	-672.81409	237.74025	1068.30835	-719.26886	66.92271	218.52480	-589.67114	101.72604	1325.96350	-755.04480	268.77692	746.59515	-775.16107	251.23930	642.45264	-770.56073	248.56340	576.21985	-711.79187	208.64063	538.79144	-803.65637	259.40466	498.91193	-517.71960	-72.95428	142.90027	-549.93469	-31.21742	162.72647	-792.18127	37.94292	173.44191				-597.84741	23.62408	169.41078	-672.27246	52.05813	161.48303	-714.42847	157.24185	220.37061	-796.53229	179.89520	182.81787	-771.35876	230.28206	203.58243	-594.21442	222.50531	174.92981	-882.62177	295.92081	144.49654	-558.36523	257.02872	164.40457	-661.26721	298.91693	156.02916	-624.69214	308.21075	156.96411	-527.98566	304.04749	146.36990	-629.58783	-75.15611	1514.82471	-645.48541	-16.09880	811.82654	-783.71387	-46.05177	486.49390	-760.77234	-20.49776	206.23715	-876.03174	-78.74249	141.20615	-730.73962	-73.97824	876.97888	-865.64764	90.02390	1064.55408	-721.98792	71.13085	574.64282	-728.40509	146.17439	578.50043				-675.61493	175.04092	162.28200	-607.87372	-78.50282	155.42802	-649.03143	-70.29419	159.53868	-646.70557	216.90964	821.85181	-756.39612	277.38898	877.46796	-692.29889	13.50975	524.40009				-743.68927	-61.70533	759.94330	-746.07312	-36.71348	616.82404	-747.85388	-33.83276	569.27765	
166	3.300	-611.94098	98.41383	1830.60669	-642.74695	284.56921	1518.57739	-670.24170	237.55978	1069.02368	-719.09540	67.10069	218.22487	-592.95624	101.62966	1329.96118	-751.71857	268.23474	746.65112	-772.75330	250.98228	642.46448	-768.37170	248.49318	576.23883	-710.06757	208.95036	538.90216	-802.07587	258.67355	499.62665	-517.74438	-73.02573	143.01189	-549.98138	-31.24969	162.52570	-792.18127	37.94292	173.44191				-597.78046	23.44178	169.49448	-672.32654	52.00786	161.31992	-714.20581	157.17542	220.30215	-796.62799	180.29051	182.36536	-771.42297	230.06908	203.75684	-594.08167	222.65009	174.88977	-882.42584	296.01208	144.62569	-558.34064	257.16129	164.43675	-661.21631	299.03046	156.33511	-624.66309	308.28699	157.03714	-527.97235	304.12524	146.33994	-636.46313	-75.41190	1518.48950	-642.30573	-16.77305	812.34698	-781.86566	-45.80436	486.81174	-760.60028	-20.65651	206.31645	-876.03656	-78.79241	141.15654	-726.78015	-74.02679	877.13739	-862.66626	89.51756	1063.77478	-719.47119	71.66844	575.29327	-726.60876	146.16937	578.36145				-676.07196	175.21371	161.91330	-607.63171	-78.48933	155.70033	-649.25287	-70.29510	159.56018	-643.40479	217.09048	822.29932	-752.82043	276.78265	877.54968	-690.30634	13.57432	523.80981				-740.52808	-61.69452	760.42883	-743.38904	-37.00143	617.11804	-745.45978	-34.14444	569.61505	
167	3.320	-622.47491	97.88666	1833.78394	-649.82019	284.67987	1522.09314	-667.30920	237.72287	1069.35437	-718.85120	67.23573	217.97279	-595.93689	101.71541	1333.68188	-748.97589	268.69958	747.20282	-770.30072	250.22192	642.57556	-766.25623	248.52948	576.92731	-708.10822	208.42892	538.81128	-800.38855	258.62897	499.88406	-517.74438	-73.02573	143.01189	-549.91339	-31.44138	162.48195	-792.23352	37.96816	173.37584				-597.84106	23.33204	169.50934	-672.24072	52.12154	161.37607	-714.02905	157.24323	220.32791	-796.62250	180.06885	182.31229	-771.27899	230.05040	203.74594	-593.96777	222.74062	174.96118	-882.57678	296.23343	144.82069	-558.27679	257.28113	164.64250	-661.13623	299.09796	156.26350	-624.66309	308.28699	157.03714	-527.95660	304.02643	146.26404	-643.33313	-75.23337	1521.42444	-638.54089	-16.80051	812.23657	-780.12415	-45.86279	487.13123	-760.53998	-20.75441	206.35822	-875.85522	-78.73365	141.22168	-722.75232	-74.71193	877.19287	-859.25635	89.46292	1062.66553	-716.95764	71.30779	575.03595	-723.82605	145.69771	579.02399				-675.76160	174.93663	162.17807	-607.91907	-78.70474	155.25545	-649.02710	-70.56975	159.51984				-749.52637	277.11011	877.30786	-688.23376	13.44303	523.74622				-736.35352	-62.66766	761.11462	-741.07190	-36.48544	616.79309	-742.74133	-33.88242	569.86047	
168	3.340	-632.90680	97.40871	1836.53198	-657.32733	284.70609	1524.96191	-664.38263	237.52718	1069.71753	-718.62360	67.19092	218.00325	-599.47900	101.74763	1337.26721	-746.26678	267.90033	747.24292	-768.11469	250.14758	643.05243	-764.67395	247.87900	577.01727	-706.27179	208.65677	538.61426	-798.67181	258.36023	500.43469	-517.76764	-72.94310	142.92091	-549.72034	-31.71764	162.47751	-792.18280	38.01347	173.44997	-636.62329	216.92674	822.14020	-597.75787	23.33972	169.53625	-672.32654	52.00786	161.31992	-714.09088	157.37682	220.24953	-796.48248	180.09045	182.53351	-771.03741	230.00661	203.90160	-593.91553	222.87988	175.10561	-882.58368	295.99481	144.60661	-558.31189	257.35587	164.71579	-661.23834	299.14420	156.30116	-624.66309	308.28699	157.03714	-527.93091	303.84103	146.24564	-650.31818	-75.04963	1523.90515	-634.43530	-16.53917	811.86908	-778.20471	-45.43455	487.39645	-760.53973	-20.69362	206.41013	-875.61414	-78.48822	140.71823	-719.17676	-74.37227	877.43878	-856.33405	88.85130	1061.96667	-714.33221	71.56656	575.59338	-721.68677	145.90451	578.90649				-675.61493	175.04092	162.28200	-607.85632	-78.68019	155.32613	-649.41254	-70.54444	159.66748				-745.49268	278.02164	878.45660	-685.98047	13.42686	523.74133				-733.38800	-62.66850	761.48785	-738.33545	-36.96539	617.12408	-740.46460	-33.89948	569.82629	
169	3.360	-642.93683	96.96294	1839.00049	-664.18011	284.09351	1527.26392	-661.60120	237.54076	1070.31030	-718.35400	67.42278	217.63864	-602.72473	102.46070	1340.62378	-743.72028	267.64139	747.38037	-765.67053	249.67615	643.34027	-762.43182	247.51436	577.17200	-704.32214	208.40744	538.99683	-797.22632	258.05927	500.68140	-517.71960	-72.95428	142.90027	-549.71075	-31.59116	162.55446	-792.20514	38.06615	173.49185	-633.59698	216.77870	821.91785	-597.73627	23.47261	169.50064	-672.32654	52.00786	161.31992	-714.00488	157.17657	220.46165	-796.09998	179.66142	182.79671	-770.80603	229.81541	203.77519	-593.93823	223.00233	174.82080	-882.42584	296.01208	144.62569	-558.17261	257.44687	164.85979	-661.38855	299.34647	156.17017	-624.66309	308.28699	157.03714	-527.95282	303.86493	146.24185	-657.15033	-75.23066	1526.44055	-631.07617	-16.89830	812.25201	-776.24750	-45.28722	487.59900	-760.27454	-20.57663	206.50299	-875.70319	-78.58893	140.90210	-715.08606	-74.39957	877.50989	-852.87775	88.65966	1061.10474	-712.14264	71.40742	576.07587	-719.04779	145.42169	579.21460				-675.45056	175.11386	162.33559	-607.85425	-78.70171	155.36792	-649.42078	-70.42448	159.41953				-742.66754	277.29053	878.10791	-683.96082	13.73713	523.33392				-729.62549	-62.36071	761.26764	-736.47272	-36.27366	616.92456	-738.03546	-34.08878	570.09912	
170	3.380	-652.62073	96.64582	1841.00854	-670.84705	283.88028	1529.26868	-658.78351	237.38605	1070.57739	-718.18463	67.68679	217.63367	-605.15710	102.22808	1343.41992	-741.12250	267.83673	747.38135	-763.23450	249.57791	643.39728	-760.37689	247.34540	577.31598	-702.46564	208.16174	538.82104	-795.51953	257.65918	500.97992	-517.82574	-73.01028	142.86247	-549.77490	-31.70726	162.54323	-792.10388	38.24798	173.48097	-630.53601	216.53156	822.03210	-597.66809	23.31289	169.48654	-672.32550	52.25227	160.91763	-713.29236	157.14417	219.87843	-796.02252	179.49829	183.20435	-770.57404	229.53387	203.72992	-593.71021	222.85715	174.82819	-882.48267	296.09924	144.64909	-558.20111	257.34314	164.79735	-661.54034	299.18408	156.18729	-624.66309	308.28699	157.03714	-527.87067	304.01624	146.18602	-663.45923	-75.68843	1529.16394	-627.18304	-16.36170	812.24872	-774.57318	-45.21273	487.88388	-759.70740	-20.51233	207.07195	-875.33441	-78.79063	141.09442	-711.14764	-74.86434	877.36194	-849.78204	88.15421	1060.05664	-709.62341	71.71070	575.46991	-716.94928	145.87105	579.30042				-675.55402	174.98891	162.04663	-607.94897	-78.74442	155.43936	-649.63348	-70.49886	159.76625				-739.68958	277.40439	878.17383	-681.57312	13.37571	523.28851				-726.11829	-62.03348	761.44067	-732.69519	-36.93141	617.62140	-735.64124	-33.68681	569.63293	
171	3.400	-662.17523	96.13517	1842.57813	-677.23987	283.42505	1531.13440	-656.04639	237.29495	1070.97339	-717.52405	67.83768	217.62749	-607.51392	102.19022	1346.25586	-738.23743	267.13165	747.81604	-761.02490	249.20700	643.51318	-758.39172	247.56827	577.63263	-700.42340	208.41180	538.58386	-793.79138	257.48843	501.15314	-517.74438	-73.02573	143.01189	-549.78448	-31.83375	162.46626	-792.00409	38.33100	173.58667	-627.43396	216.29179	821.28198	-597.83514	23.36629	169.15717	-672.32550	52.25227	160.91763	-713.07245	157.24364	219.91393	-795.69495	179.64706	183.13707	-770.32861	229.32286	203.84895	-593.87573	222.95221	174.96957	-882.69629	296.23059	144.74792	-557.99072	257.45822	164.92783	-661.73431	299.46021	156.15897	-624.73169	308.36856	156.97665	-527.87567	303.95294	146.20589	-669.73334	-75.65788	1530.79382	-623.21552	-16.16000	812.16217	-772.77008	-44.76531	488.13699	-759.49554	-20.02366	206.72696	-875.87817	-78.62728	141.29668	-706.95050	-74.63469	877.53937	-846.64618	87.69270	1059.15930	-707.11835	71.39516	575.57971	-714.53473	145.52882	579.64093				-675.75885	174.99037	161.92221	-607.85938	-78.79941	155.48715	-649.35083	-70.14054	159.48962				-736.36517	277.40668	878.44464	-679.22449	13.45312	523.06921				-722.51990	-62.18314	761.22980	-730.10046	-36.56598	617.38586	-733.27765	-34.03642	570.05792	
172	3.420	-671.32745	95.98850	1843.94202	-683.38251	283.03125	1532.65576	-653.38367	237.45282	1071.40308	-717.30212	68.04829	217.54173	-609.64026	102.21223	1348.65845	-735.48346	267.02481	747.78583	-758.49463	249.46158	644.20544	-756.33765	247.17516	578.15479	-698.91827	208.20970	538.65167	-792.57538	257.21799	501.41721	-517.59814	-72.90266	142.98404	-549.71259	-31.83050	162.38811	-792.00116	38.29997	173.46916	-624.28052	216.78964	822.35785	-597.91809	23.55482	168.98941	-672.26550	52.12990	160.68182	-713.00818	157.27435	219.30173	-796.59033	178.96429	183.24973	-770.10974	229.12669	204.03912	-593.73895	222.72754	174.85953	-882.71808	296.22659	144.56442	-558.04541	257.42322	164.85774	-661.54370	299.47433	156.29060	-624.66309	308.28699	157.03714	-528.03156	304.52658	146.55516	-675.34064	-75.64178	1532.42566	-619.92151	-15.71495	812.40094	-770.66016	-44.86593	488.30585	-759.21649	-20.41747	207.03871	-876.04169	-78.95963	141.37299	-702.76477	-74.69943	877.54694	-843.53107	87.26602	1058.00745	-704.73920	71.22951	575.29895	-712.84076	145.53525	579.67279				-675.32220	174.98436	161.78758	-607.77386	-78.67269	155.64262	-649.44141	-70.27470	159.81140				-733.09473	276.96140	878.26556	-677.34180	13.80098	522.38049				-718.80048	-61.73149	761.52167	-727.55994	-36.85839	617.07104	-730.44098	-33.72138	569.47278	
